<svg xmlns="http://www.w3.org/2000/svg" viewBox="0 0 150 150" fill="rgb(20%,20%,20%)" xmlns:v="https://vecta.io/nano"><path d="M23 108.344L12.594 118.75l18.656 18.656L41.656 127c6.164 3.961 12.992 6.77 20.156 8.297V150h26.406v-14.703A63.35 63.35 0 0 0 108.375 127l10.375 10.406 18.656-18.656L127 108.344c3.961-6.164 6.77-12.992 8.297-20.156H150V61.797h-14.703A63.35 63.35 0 0 0 127 41.641l10.406-10.391-18.656-18.656-10.406 10.547c-6.164-3.961-12.992-6.77-20.156-8.297V0H61.797v14.703A63.35 63.35 0 0 0 41.641 23L31.25 12.594 12.594 31.25 23 41.656c-3.961 6.164-6.77 12.992-8.297 20.156H0v26.406h14.703A63.31 63.31 0 0 0 23 108.344zm52-75.609a42.27 42.27 0 0 1 29.887 12.379c7.926 7.926 12.379 18.676 12.379 29.887A42.27 42.27 0 0 1 75 117.266c-11.211 0-21.961-4.453-29.887-12.379A42.27 42.27 0 0 1 32.734 75c0-11.211 4.453-21.961 12.379-29.887S63.789 32.734 75 32.734zm.953 70.675a28.75 28.75 0 0 0 20.34-8.43 28.76 28.76 0 0 0 8.426-20.34c0-7.629-3.031-14.945-8.426-20.34s-12.711-8.426-20.34-8.426-14.945 3.031-20.34 8.426-8.426 12.711-8.426 20.34c.008 7.629 3.043 14.941 8.434 20.332a28.81 28.81 0 0 0 20.332 8.438zM65.797 68.625H78.61c-.098-.289-.234-.57-.406-.828a4.21 4.21 0 0 0-2.531-1.641h-9.875v-4.687h21.516v4.688h-4.687a8.43 8.43 0 0 1 .781 2.488h3.891v4.688h-4.328a10.08 10.08 0 0 1-3.875 5.012 13.32 13.32 0 0 1-3.469 1.707l2.188 4.109c1.219 2.328 2.484 4.688 3.703 6.75L77.5 93.313c-1.297-2.141-2.594-4.687-3.844-7s-2.484-4.687-3.703-6.75l-2.031-3.375 3.953-.172a9.12 9.12 0 0 0 4.609-1.562 5.82 5.82 0 0 0 1.219-1.121H65.828zm0 0"/></svg>