<svg xmlns="http://www.w3.org/2000/svg" width="366.943" height="50.865" viewBox="0 0 97.087 13.458" xmlns:v="https://vecta.io/nano"><path d="M1.263 0Q5.915.019 9.59.019q1.551 0 3.044 0 1.512 0 2.68 0 1.168 0 1.876 0 .727 0 .727-.019 0 0-.057.153-.057.153-.153.421-.077.268-.191.613-.115.345-.23.708-.268.842-.613 1.933h-5.532q0 0-.134.402-.115.402-.325 1.072-.191.67-.459 1.531-.268.861-.536 1.761Q9.054 10.7 8.231 13.4H2.68l2.852-9.571H0z" fill="#ff2a2a"/><path d="M12.514 4.93l8.776-.012-.642 2.12h-6.846l-1.187 3.95c-.016.065-.004.145.036.242.048.089.105.133.17.133h.388.812l1.103-.012 1.224-.012h1.2l1.018-.012.703.012c.17 0 .242.004.218.012l-.606 2.048H9.924c-.239-.004-.011-.008-.011-.008l.528-1.822zm.886 3.191l6.424-.041-.703 1.89-6.195-.041zm6.479 5.279l2.714-8.482 2.096 2.294-2.205 6.188zm6.143-8.482l.652.009.221.755.979 4.206 4.219-4.969h4.495L33.971 13.4l-2.643-.02 2.001-6.437-5.305 6.516-1.777-.014-1.558-6.231-2.096-2.294zm9.377 8.482l2.954-8.482h7.121c.137 0 .263.065.376.194a1.47 1.47 0 0 1 .279.448 2.18 2.18 0 0 1 .145.557 1.29 1.29 0 0 1 0 .497 2.43 2.43 0 0 1-.097.303l-.145.424-.194.521-.194.557-.521 1.406c0 .065-.04.145-.121.242-.081.089-.178.178-.291.267-.105.081-.218.153-.339.218s-.708.097-.627.097h.571-1.042l-1.175-.012h-1.078-.788-1.414l.589-1.793h3.479a.34.34 0 0 0 .254-.097c.065-.073.121-.158.17-.254.048-.105.093-.222.133-.351l.133-.4c.089-.25.081-.464-.024-.642a.66.66 0 0 0-.448-.327 2.48 2.48 0 0 0-.315-.012l-.569-.012h-.679-.679-.509-.206l-2.242 6.652zm16.437-8.482h1.311 8.727l-.642 1.796h-7.171l-1.512 4.599c-.016.065-.004.145.036.242.048.089.105.133.17.133h.712 1.136l1.103-.012 1.224-.012h1.2l1.018-.012.703.012c.17 0 .242.004.218.012l-.606 1.723h-8.305a1.15 1.15 0 0 1-.315-.048 1.98 1.98 0 0 1-.339-.133 1.82 1.82 0 0 1-.291-.194 1.16 1.16 0 0 1-.218-.23 3.71 3.71 0 0 1-.303-.594.9.9 0 0 1-.036-.63l1.929-5.882zm8.308 8.482l7.476-8.482h1.431a.78.78 0 0 1 .436.145 1.3 1.3 0 0 1 .351.303 2.88 2.88 0 0 1 .218.327c.073.113.133.226.182.339l.097.388.206.86.267 1.187.303 1.333.812 3.599H69.39l-.436-1.563-4.388.054.598-.733.295-.335.26-.266c.089-.097.096-.122.145-.179l.259-.285 2.347-.041-.436-2.094-4.798 5.441zm12.728 0l2.726-8.482h7.538c.129 0 .246.032.351.097a.91.91 0 0 1 .291.267 1.43 1.43 0 0 1 .218.4 2.69 2.69 0 0 1 .133.46c.016.081.012.194-.012.339-.016.137-.044.291-.085.46l-.158.545-.17.582-.523 1.442-.422.691s-.039.056-.238.253c-.153.155-.358.205-.358.205-.09.03-.131.043-.228.051a3.05 3.05 0 0 0-.315.048c-.024.008-.349.053-.325.133a3.86 3.86 0 0 0 .121.303l.206.424.267.473.751 1.309h-3.253l-1.393-2.678-1.636.041.322-1.801 4.001.025.533-1.936h-3.681L75.546 13.4zm13.421-8.482h.473l1.187-.012h1.636 1.878l4.752.012c.241.004.27.059.433.184.092.123.116.168.197.294.067.154.113.208.146.321a2.73 2.73 0 0 1 .085.582c.016.202.004.396-.036.582-.008.048-.04.162-.097.339l-.194.63-.267.836-.303.921-.863 2.448-.117.265-.122.219-.133.206a2.82 2.82 0 0 1-.23.339c-.081.105-.182.178-.303.218l-.23.073a1.38 1.38 0 0 1-.242.024H83.87l1.466-4.932h3.001l-.885 3.184h4.633a.59.59 0 0 0 .296-.085.52.52 0 0 0 .165-.218c.008-.016-.04.113 0 0a4.01 4.01 0 0 0 .3-.642c.065-.186.103-.388.175-.606l.22-.691.865-2.479c.024-.032.012-.069-.036-.109-.04-.04-.081-.061-.121-.061l-8.261.012z"/></svg>