<?xml version="1.0" encoding="UTF-8" standalone="no"?>
<svg
   width="377.94299"
   height="50.865002"
   viewBox="0 0 99.997413 13.458"
   version="1.1"
   id="svg6"
   sodipodi:docname="logo.svg"
   xml:space="preserve"
   inkscape:version="1.2.1 (9c6d41e410, 2022-07-14)"
   xmlns:inkscape="http://www.inkscape.org/namespaces/inkscape"
   xmlns:sodipodi="http://sodipodi.sourceforge.net/DTD/sodipodi-0.dtd"
   xmlns="http://www.w3.org/2000/svg"
   xmlns:svg="http://www.w3.org/2000/svg"><defs
     id="defs10" /><sodipodi:namedview
     id="namedview8"
     pagecolor="#ffffff"
     bordercolor="#000000"
     borderopacity="0.25"
     inkscape:showpageshadow="2"
     inkscape:pageopacity="0.0"
     inkscape:pagecheckerboard="0"
     inkscape:deskcolor="#d1d1d1"
     showgrid="false"
     inkscape:zoom="4.0360493"
     inkscape:cx="183.34761"
     inkscape:cy="25.520006"
     inkscape:window-width="2560"
     inkscape:window-height="1334"
     inkscape:window-x="-11"
     inkscape:window-y="-11"
     inkscape:window-maximized="1"
     inkscape:current-layer="svg6" /><g
     id="g322"><path
       d="m 1.263,0 q 4.652,0.019 8.327,0.019 1.551,0 3.044,0 1.512,0 2.68,0 1.168,0 1.876,0 0.727,0 0.727,-0.019 0,0 -0.057,0.153 -0.057,0.153 -0.153,0.421 -0.077,0.268 -0.191,0.613 -0.115,0.345 -0.23,0.708 -0.268,0.842 -0.613,1.933 h -5.532 q 0,0 -0.134,0.402 -0.115,0.402 -0.325,1.072 -0.191,0.67 -0.459,1.531 Q 9.955,7.694 9.687,8.594 9.054,10.7 8.231,13.4 H 2.68 L 5.532,3.829 H 0 Z"
       fill="#ff2a2a"
       id="path2" /><path
       d="m 12.514,4.93 8.776,-0.012 -0.642,2.12 h -6.846 l -1.187,3.95 c -0.016,0.065 -0.004,0.145 0.036,0.242 0.048,0.089 0.105,0.133 0.17,0.133 h 0.388 0.812 l 1.103,-0.012 1.224,-0.012 h 1.2 l 1.018,-0.012 0.703,0.012 c 0.17,0 0.242,0.004 0.218,0.012 l -0.606,2.048 H 9.924 C 9.685,13.395 9.913,13.391 9.913,13.391 l 0.528,-1.822 z M 13.4,8.121 19.824,8.08 19.121,9.97 12.926,9.929 Z m 6.479,5.279 2.714,-8.482 2.096,2.294 -2.205,6.188 z m 6.143,-8.482 0.652,0.009 0.221,0.755 0.979,4.206 4.219,-4.969 h 4.495 L 33.971,13.4 31.328,13.38 33.329,6.943 28.024,13.459 26.247,13.445 24.689,7.214 22.593,4.92 Z m 9.377,8.482 2.954,-8.482 h 7.121 c 0.137,0 0.263,0.065 0.376,0.194 a 1.47,1.47 0 0 1 0.279,0.448 2.18,2.18 0 0 1 0.145,0.557 1.29,1.29 0 0 1 0,0.497 2.43,2.43 0 0 1 -0.097,0.303 l -0.145,0.424 -0.194,0.521 -0.194,0.557 -0.521,1.406 c 0,0.065 -0.04,0.145 -0.121,0.242 -0.081,0.089 -0.178,0.178 -0.291,0.267 -0.105,0.081 -0.218,0.153 -0.339,0.218 -0.121,0.065 -0.708,0.097 -0.627,0.097 h 0.571 -1.042 l -1.175,-0.012 h -1.078 -0.788 -1.414 l 0.589,-1.793 h 3.479 a 0.34,0.34 0 0 0 0.254,-0.097 c 0.065,-0.073 0.121,-0.158 0.17,-0.254 0.048,-0.105 0.093,-0.222 0.133,-0.351 l 0.133,-0.4 C 43.666,7.492 43.658,7.278 43.553,7.1 A 0.66,0.66 0 0 0 43.105,6.773 2.48,2.48 0 0 0 42.79,6.761 L 42.221,6.749 h -0.679 -0.679 -0.509 -0.206 l -2.242,6.652 z M 51.836,4.918 h 1.311 8.727 l -0.642,1.796 h -7.171 l -1.512,4.599 c -0.016,0.065 -0.004,0.145 0.036,0.242 0.048,0.089 0.105,0.133 0.17,0.133 h 0.712 1.136 l 1.103,-0.012 1.224,-0.012 h 1.2 l 1.018,-0.012 0.703,0.012 c 0.17,0 0.242,0.004 0.218,0.012 l -0.606,1.723 H 51.158 A 1.15,1.15 0 0 1 50.843,13.351 1.98,1.98 0 0 1 50.504,13.218 1.82,1.82 0 0 1 50.213,13.024 1.16,1.16 0 0 1 49.995,12.794 3.71,3.71 0 0 1 49.692,12.2 0.9,0.9 0 0 1 49.656,11.57 L 51.585,5.688 Z M 60.144,13.4 67.62,4.918 h 1.431 a 0.78,0.78 0 0 1 0.436,0.145 1.3,1.3 0 0 1 0.351,0.303 2.88,2.88 0 0 1 0.218,0.327 c 0.073,0.113 0.133,0.226 0.182,0.339 l 0.097,0.388 0.206,0.86 0.267,1.187 0.303,1.333 0.812,3.599 H 69.39 l -0.436,-1.563 -4.388,0.054 0.598,-0.733 0.295,-0.335 0.26,-0.266 c 0.089,-0.097 0.096,-0.122 0.145,-0.179 l 0.259,-0.285 2.347,-0.041 -0.436,-2.094 -4.798,5.441 z m 12.728,0 2.726,-8.482 h 7.538 c 0.129,0 0.246,0.032 0.351,0.097 a 0.91,0.91 0 0 1 0.291,0.267 1.43,1.43 0 0 1 0.218,0.4 2.69,2.69 0 0 1 0.133,0.46 c 0.016,0.081 0.012,0.194 -0.012,0.339 -0.016,0.137 -0.044,0.291 -0.085,0.46 l -0.158,0.545 -0.17,0.582 -0.523,1.442 -0.422,0.691 c 0,0 -0.039,0.056 -0.238,0.253 -0.153,0.155 -0.358,0.205 -0.358,0.205 -0.09,0.03 -0.131,0.043 -0.228,0.051 a 3.05,3.05 0 0 0 -0.315,0.048 c -0.024,0.008 -0.349,0.053 -0.325,0.133 a 3.86,3.86 0 0 0 0.121,0.303 l 0.206,0.424 0.267,0.473 0.751,1.309 h -3.253 l -1.393,-2.678 -1.636,0.041 0.322,-1.801 4.001,0.025 0.533,-1.936 H 77.533 L 75.546,13.4 Z M 86.293,4.918 h 0.473 l 1.187,-0.012 h 1.636 1.878 l 4.752,0.012 c 0.241,0.004 0.27,0.059 0.433,0.184 0.092,0.123 0.116,0.168 0.197,0.294 0.067,0.154 0.113,0.208 0.146,0.321 a 2.73,2.73 0 0 1 0.085,0.582 c 0.016,0.202 0.004,0.396 -0.036,0.582 -0.008,0.048 -0.04,0.162 -0.097,0.339 l -0.194,0.63 -0.267,0.836 -0.303,0.921 -0.863,2.448 -0.117,0.265 -0.122,0.219 -0.133,0.206 a 2.82,2.82 0 0 1 -0.23,0.339 c -0.081,0.105 -0.182,0.178 -0.303,0.218 l -0.23,0.073 a 1.38,1.38 0 0 1 -0.242,0.024 H 83.87 l 1.466,-4.932 h 3.001 l -0.885,3.184 h 4.633 a 0.59,0.59 0 0 0 0.296,-0.085 0.52,0.52 0 0 0 0.165,-0.218 c 0.008,-0.016 -0.04,0.113 0,0 a 4.01,4.01 0 0 0 0.3,-0.642 C 92.911,10.52 92.949,10.318 93.021,10.1 L 93.241,9.409 94.106,6.93 C 94.13,6.898 94.118,6.861 94.07,6.821 94.03,6.781 93.989,6.76 93.949,6.76 l -8.261,0.012 z"
       id="path4" /><g
       id="g315"
       transform="matrix(0.01999984,0,0,0.01999984,95.709789,0.32720322)"><circle
         cx="100"
         cy="100"
         r="88.5"
         fill="none"
         stroke="#000000"
         stroke-width="20"
         id="circle303" /><path
         d="m 94.6,92 c 5.5,0 9.5,-1.1 11.9,-3.2 2.4,-2 3.7,-5.4 3.7,-10.2 0,-4.7 -1.3,-8 -3.7,-10.1 -2.4,-2 -6.4,-3 -11.9,-3 H 83.4 V 92 h 11.2 m -11.2,18.3 v 39 H 56.8 V 46.2 h 40.6 c 13.6,0 23.5,2.3 29.8,6.9 6.4,4.5 9.5,11.7 9.5,21.6 0,6.8 -1.6,12.4 -4.9,16.8 -3.3,4.3 -8.2,7.6 -14.9,9.6 3.7,0.9 6.9,2.8 9.8,5.7 2.9,2.9 5.8,7.3 8.7,13.3 l 14.5,29.2 H 121.6 L 109,123.7 c -2.5,-5.1 -5.1,-8.7 -7.7,-10.5 -2.6,-1.9 -6.1,-2.9 -10.4,-2.9 h -7.5"
         id="path305" /></g></g></svg>
