<svg xmlns="http://www.w3.org/2000/svg" viewBox="0 0 111 149" fill="rgb(20%,20%,20%)" xmlns:v="https://vecta.io/nano"><path d="M44.828 109l-7.707 2.504c-.789.156-1.418.316-2.203.316-2.676 0-5.035-1.41-6.293-3.762l-3.617-7.203-2.988-.312-15.254 32.418c-1.262 2.504.941 5.168 3.617 4.699l11.008-2.039c1.414-.312 2.832.313 3.617 1.723l5.348 9.867c1.258 2.348 4.875 2.191 5.977-.156l15.258-32.262c-.156-.156-.316-.156-.473-.312zm44.356-8.457l-3.148.313-3.617 7.207a7.04 7.04 0 0 1-6.289 3.758c-.789 0-1.414-.156-2.203-.312L66.219 109l-6.133 5.168c-.156.156-.316.313-.473.313l15.258 32.262c1.102 2.508 4.559 2.664 5.977.156l5.504-9.867c.789-1.25 2.203-1.879 3.617-1.723l11.012 2.039c2.672.469 4.875-2.195 3.617-4.699zM55.523 23.336c-17.617 0-32.086 14.25-32.086 31.949S37.906 87.23 55.523 87.23s32.086-14.406 32.086-31.945-14.473-31.949-32.086-31.949zm18.402 26.777l-7.395 7.832c-.312.313-.312.625-.312.941l1.258 10.648c.156.938-.785 1.566-1.73 1.25l-9.75-4.539a1.01 1.01 0 0 0-.945 0l-9.75 4.539c-.789.473-1.73-.312-1.73-1.25l1.258-10.648c0-.316 0-.629-.316-.941l-7.391-7.832c-.629-.625-.316-1.879.629-2.035l10.535-2.035c.316 0 .629-.312.789-.625l5.191-9.398c.469-.781 1.57-.781 2.043 0l5.191 9.398c.156.313.473.469.785.625l10.539 2.035c1.258.156 1.73 1.254 1.102 2.035zm0 0"/><path d="M110.574 56.379c.629-.625.629-1.566 0-2.191l-6.605-7.676c-.473-.469-.473-1.094-.316-1.723l3.145-9.551c.316-.785-.156-1.723-.785-2.035l-8.965-4.543c-.473-.312-.945-.781-.945-1.41l-.785-10.023c0-.781-.789-1.566-1.574-1.566l-10.223-.781c-.629 0-1.102-.469-1.414-.941l-4.562-8.926c-.316-.781-1.258-1.098-2.047-.781l-9.594 3.129c-.629.156-1.258 0-1.73-.312L56.465.469a1.52 1.52 0 0 0-2.199 0l-7.551 6.578c-.473.469-1.102.469-1.73.313L35.391 4.23c-.789-.316-1.73.156-2.047.781l-4.559 8.926c-.316.473-.789.941-1.418.941l-10.066.781c-.785 0-1.57.785-1.57 1.566l-.789 10.023c0 .625-.473 1.098-.941 1.41l-8.969 4.539c-.785.316-1.102 1.254-.785 2.039l3.145 9.551c.156.629 0 1.254-.312 1.723L.473 54.188c-.629.625-.629 1.566 0 2.191l6.605 7.676c.473.469.473 1.094.313 1.723l-3.145 9.551c-.313.785.156 1.723.789 2.039L14 81.906c.473.313.941.785.941 1.41l.789 10.023c0 .781.785 1.566 1.574 1.566l10.066.781c.629 0 1.102.469 1.414.941l4.559 8.926c.316.785 1.262 1.098 2.047.785l9.594-3.133c.629-.156 1.258 0 1.73.313l7.707 6.578c.629.625 1.574.625 2.203 0l7.707-6.578c.473-.469 1.102-.469 1.73-.312l9.594 3.133c.789.313 1.73-.156 2.047-.785l4.559-8.926c.316-.473.789-.941 1.418-.941l10.066-.781c.785 0 1.57-.785 1.57-1.566l.789-10.023c0-.625.473-1.098.941-1.41l8.969-4.539c.785-.316 1.102-1.254.785-2.039l-3.145-9.551c-.156-.629 0-1.254.313-1.723zM55.523 92.555c-20.605 0-37.434-16.758-37.434-37.27s16.828-37.273 37.434-37.273S92.957 34.77 92.957 55.285s-16.832 37.27-37.434 37.27zm0 0"/></svg>